<svg xmlns="http://www.w3.org/2000/svg" width="222.015" height="34.75" viewBox="0 0 222.015 34.75">
  <g id="logo-horizontal-white" transform="translate(322.806 260.816)">
    <path id="logo-shape" d="M18.761,29.093a5.633,5.633,0,1,1,5.633,5.657A5.645,5.645,0,0,1,18.761,29.093ZM7.494,26.062a2.616,2.616,0,1,1,2.615,2.626A2.621,2.621,0,0,1,7.494,26.062Zm29.324-1.01a2.616,2.616,0,1,1,2.615,2.626A2.621,2.621,0,0,1,36.818,25.052ZM24.043,15.734a4,4,0,1,1,4,4.015A4.007,4.007,0,0,1,24.043,15.734ZM10.663,15a4.728,4.728,0,1,1,4.728,4.748A4.738,4.738,0,0,1,10.663,15ZM33.649,6.566a2.616,2.616,0,1,1,2.616,2.626A2.621,2.621,0,0,1,33.649,6.566ZM0,5.909A2.616,2.616,0,1,1,2.616,8.536,2.621,2.621,0,0,1,0,5.909ZM18.812,3.283a3.269,3.269,0,1,1,3.269,3.283A3.276,3.276,0,0,1,18.812,3.283Z" transform="translate(-322.806 -260.816)" fill="#09c"/>
    <path id="Path_Heme" data-name="Path Heme" d="M16.519-36.036h4.612v20.489H16.519v-8.692H8.772v8.692H4.16V-36.036H8.772V-28.2h7.746ZM24.235-23.2a9.511,9.511,0,0,1,.636-3.622,7.765,7.765,0,0,1,1.67-2.587,6.949,6.949,0,0,1,2.38-1.567,7.452,7.452,0,0,1,2.764-.532,6.87,6.87,0,0,1,5.233,2.025q1.922,2.025,1.922,5.958,0,.384-.03.843t-.059.813H28.759a2.927,2.927,0,0,0,1.271,2.158,5.11,5.11,0,0,0,3.016.8,12.731,12.731,0,0,0,2.38-.222,8.984,8.984,0,0,0,1.907-.547l.591,3.577a6.084,6.084,0,0,1-.946.355,12.38,12.38,0,0,1-1.316.31q-.724.133-1.552.222a15.531,15.531,0,0,1-1.656.089,9.8,9.8,0,0,1-3.651-.621,7.112,7.112,0,0,1-2.572-1.7,6.747,6.747,0,0,1-1.508-2.557A10.131,10.131,0,0,1,24.235-23.2ZM34.583-24.89a4.547,4.547,0,0,0-.192-1.094,2.731,2.731,0,0,0-.5-.946,2.676,2.676,0,0,0-.857-.68,2.793,2.793,0,0,0-1.286-.266,2.955,2.955,0,0,0-1.271.251,2.627,2.627,0,0,0-.887.665A2.976,2.976,0,0,0,29.04-26a6.305,6.305,0,0,0-.281,1.109ZM50.194-23.8a6.075,6.075,0,0,0-.547-3.016A2.028,2.028,0,0,0,47.77-27.7q-.414,0-.857.044t-.857.1v12H41.649V-30.566q.562-.148,1.316-.31t1.6-.3q.843-.133,1.73-.207t1.744-.074a7.332,7.332,0,0,1,2.735.429A6.17,6.17,0,0,1,52.5-30a7.569,7.569,0,0,1,2.173-1.064,7.61,7.61,0,0,1,2.262-.384,7.768,7.768,0,0,1,3.06.517A4.612,4.612,0,0,1,61.9-29.472a5.538,5.538,0,0,1,.976,2.247,14.5,14.5,0,0,1,.266,2.9v8.781H58.739V-23.8a6.075,6.075,0,0,0-.547-3.016,2.028,2.028,0,0,0-1.877-.887,3.968,3.968,0,0,0-.99.177,3.863,3.863,0,0,0-1.05.443,6.714,6.714,0,0,1,.266,1.434q.059.754.059,1.611v8.485H50.194ZM65.8-23.2a9.511,9.511,0,0,1,.636-3.622,7.765,7.765,0,0,1,1.67-2.587,6.949,6.949,0,0,1,2.38-1.567,7.452,7.452,0,0,1,2.764-.532,6.87,6.87,0,0,1,5.233,2.025q1.922,2.025,1.922,5.958,0,.384-.03.843t-.059.813H70.328A2.927,2.927,0,0,0,71.6-19.716a5.11,5.11,0,0,0,3.016.8A12.731,12.731,0,0,0,77-19.139a8.984,8.984,0,0,0,1.907-.547l.591,3.577a6.084,6.084,0,0,1-.946.355,12.38,12.38,0,0,1-1.316.31q-.724.133-1.552.222a15.531,15.531,0,0,1-1.656.089,9.8,9.8,0,0,1-3.651-.621,7.112,7.112,0,0,1-2.572-1.7,6.747,6.747,0,0,1-1.508-2.557A10.131,10.131,0,0,1,65.8-23.2ZM76.153-24.89a4.547,4.547,0,0,0-.192-1.094,2.731,2.731,0,0,0-.5-.946,2.676,2.676,0,0,0-.857-.68,2.793,2.793,0,0,0-1.286-.266,2.955,2.955,0,0,0-1.271.251,2.627,2.627,0,0,0-.887.665,2.976,2.976,0,0,0-.547.961,6.306,6.306,0,0,0-.281,1.109Z" transform="translate(-272.177 -217.957)" fill="#09c"/>
    <path id="Path_Health" data-name="Path Health" d="M60.385-23.479v17.49a5.322,5.322,0,0,0,.08.97,1.349,1.349,0,0,0,.243.583,1.322,1.322,0,0,0,.528.379,3.505,3.505,0,0,0,1.105.225l.549.041L62.105.8,61.677.795A11.515,11.515,0,0,1,58.419.358a5.121,5.121,0,0,1-2.089-1.2,4.082,4.082,0,0,1-1.075-1.912,9.613,9.613,0,0,1-.266-2.35V-22.61ZM61.722-2.9a3.625,3.625,0,0,1-.887-.244,2.3,2.3,0,0,1-.918-.683,2.335,2.335,0,0,1-.435-1.01,6.316,6.316,0,0,1-.1-1.154V-22.305l-3.4.547V-5.1A8.619,8.619,0,0,0,56.225-3a3.054,3.054,0,0,0,.813,1.451,4.143,4.143,0,0,0,1.687.954,9.762,9.762,0,0,0,2.54.378Zm19.9-20.582v7.364q.251-.059.542-.115a7.669,7.669,0,0,1,1.436-.142,8.822,8.822,0,0,1,3.332.554,5.393,5.393,0,0,1,2.207,1.611A6.167,6.167,0,0,1,90.3-11.769a13.027,13.027,0,0,1,.323,3.007V.5h-5.4V-8.231a5.455,5.455,0,0,0-.471-2.747,1.716,1.716,0,0,0-1.6-.647,5.164,5.164,0,0,0-1.008.094c-.186.037-.362.076-.527.116V.5h-5.4V-22.61Zm-1,8.715v-7.541l-3.4.547V-.5h3.4V-12.177l.363-.1c.287-.082.613-.16.969-.231a6.164,6.164,0,0,1,1.2-.113A2.651,2.651,0,0,1,85.607-11.5a6.431,6.431,0,0,1,.62,3.271V-.5h3.4V-8.762a12.031,12.031,0,0,0-.3-2.775,5.176,5.176,0,0,0-.967-2.046,4.407,4.407,0,0,0-1.805-1.31,7.849,7.849,0,0,0-2.951-.479,6.667,6.667,0,0,0-1.248.124,8.673,8.673,0,0,0-1.072.264ZM1.86-20.944h5.6v7.818h6.729v-7.818h5.6V.5h-5.6V-8.173H7.462V.5H1.86Zm4.6,1H2.86V-.5h3.6V-9.173h8.729V-.5h3.6V-19.944h-3.6v7.818H6.462Zm62.508-.733v4.659h5.28v4.658H68.97V-6.4a3.885,3.885,0,0,0,.418,1.959c.227.385.742.58,1.531.58a7.935,7.935,0,0,0,1.373-.125,7.061,7.061,0,0,0,1.281-.344l.563-.214.8,4.414-.376.153A13.063,13.063,0,0,1,72.717.6a10.851,10.851,0,0,1-2.507.25A8.389,8.389,0,0,1,67.04.329a5.188,5.188,0,0,1-2.085-1.5,5.569,5.569,0,0,1-1.088-2.314,13.008,13.008,0,0,1-.293-2.854V-19.807Zm4.28,5.659H67.97V-19.5l-3.4.547V-6.343a12.012,12.012,0,0,0,.268,2.633,4.58,4.58,0,0,0,.888,1.9,4.2,4.2,0,0,0,1.691,1.21,7.419,7.419,0,0,0,2.789.449,9.875,9.875,0,0,0,2.272-.222A12.785,12.785,0,0,0,73.8-.761l-.443-2.448a8.735,8.735,0,0,1-.9.205,8.936,8.936,0,0,1-1.547.14,2.551,2.551,0,0,1-2.393-1.072A4.842,4.842,0,0,1,67.97-6.4v-5.957h5.28ZM29.825-16.43a7.364,7.364,0,0,1,5.584,2.177,8.836,8.836,0,0,1,2.055,6.288c0,.265-.01.559-.031.873s-.04.582-.06.821l-.038.458H27.518a2.422,2.422,0,0,0,.944,1.246,4.643,4.643,0,0,0,2.719.7,12.261,12.261,0,0,0,2.281-.212,8.523,8.523,0,0,0,1.795-.512l.59-.259L36.6-.278l-.33.165a6.489,6.489,0,0,1-1.024.386A12.909,12.909,0,0,1,33.883.6c-.492.09-1.025.167-1.586.227a16.071,16.071,0,0,1-1.705.091A10.317,10.317,0,0,1,26.763.258a7.624,7.624,0,0,1-2.744-1.817A7.259,7.259,0,0,1,22.4-4.3a10.653,10.653,0,0,1-.512-3.343,10.027,10.027,0,0,1,.672-3.8,8.279,8.279,0,0,1,1.776-2.745,7.463,7.463,0,0,1,2.544-1.675A7.968,7.968,0,0,1,29.825-16.43Zm6.587,9.617q.012-.164.023-.343c.019-.293.028-.565.028-.809a7.892,7.892,0,0,0-1.78-5.6,6.323,6.323,0,0,0-4.859-1.865,6.972,6.972,0,0,0-2.574.5,6.468,6.468,0,0,0-2.205,1.452,7.288,7.288,0,0,0-1.558,2.417,9.041,9.041,0,0,0-.6,3.424,9.657,9.657,0,0,0,.462,3.029,6.267,6.267,0,0,0,1.393,2.365A6.634,6.634,0,0,0,27.134-.671a9.332,9.332,0,0,0,3.458.584,15.068,15.068,0,0,0,1.6-.086C32.726-.23,33.234-.3,33.7-.389a11.913,11.913,0,0,0,1.259-.3c.2-.06.377-.119.531-.178l-.427-2.583a11.444,11.444,0,0,1-1.416.354,13.263,13.263,0,0,1-2.468.23,5.6,5.6,0,0,1-3.3-.889,3.414,3.414,0,0,1-1.476-2.507l-.06-.554Zm8.93-9.617a10.714,10.714,0,0,1,3.406.469,5.554,5.554,0,0,1,2.282,1.4,5.178,5.178,0,0,1,1.225,2.217A10.438,10.438,0,0,1,52.6-9.587V-.04L52.2.046c-.634.139-1.526.3-2.65.491A25.841,25.841,0,0,1,45.4.824,13.465,13.465,0,0,1,42.566.548,6.445,6.445,0,0,1,40.28-.4a4.494,4.494,0,0,1-1.525-1.773,5.962,5.962,0,0,1-.522-2.608,5.038,5.038,0,0,1,.613-2.551,4.714,4.714,0,0,1,1.632-1.681,7.126,7.126,0,0,1,2.252-.874,12.305,12.305,0,0,1,2.552-.262,14.464,14.464,0,0,1,1.574.077c.186.021.357.044.515.069a1.855,1.855,0,0,0-.525-1.239,2.866,2.866,0,0,0-2.006-.532,14.6,14.6,0,0,0-2.139.157,9.042,9.042,0,0,0-1.788.432l-.572.212-.724-4.571.415-.128c.266-.082.6-.169.993-.26s.828-.173,1.291-.243.949-.131,1.457-.18S44.816-16.43,45.342-16.43ZM51.6-.848V-9.587a9.443,9.443,0,0,0-.307-2.493,4.189,4.189,0,0,0-.987-1.795,4.571,4.571,0,0,0-1.878-1.139,9.742,9.742,0,0,0-3.084-.416c-.493,0-.987.024-1.47.071s-.963.107-1.4.174-.847.144-1.217.229q-.276.064-.508.124l.4,2.524a11.306,11.306,0,0,1,1.412-.3,15.6,15.6,0,0,1,2.286-.168,3.7,3.7,0,0,1,2.714.825,2.925,2.925,0,0,1,.825,2.153v1.076L47.741-8.9a6.315,6.315,0,0,0-.995-.176,13.469,13.469,0,0,0-1.464-.071,11.3,11.3,0,0,0-2.345.24A6.132,6.132,0,0,0,41-8.158,3.725,3.725,0,0,0,39.712-6.83a4.06,4.06,0,0,0-.479,2.051,4.985,4.985,0,0,0,.422,2.171,3.459,3.459,0,0,0,1.189,1.384,5.454,5.454,0,0,0,1.933.794A12.469,12.469,0,0,0,45.4-.176a24.86,24.86,0,0,0,3.989-.273C50.28-.6,51.02-.731,51.6-.848ZM29.883-12.8a3.289,3.289,0,0,1,1.512.321,3.179,3.179,0,0,1,1.013.806A3.235,3.235,0,0,1,33-10.56a5.059,5.059,0,0,1,.213,1.211l.028.526H26.319L26.41-9.4a6.822,6.822,0,0,1,.3-1.194,3.481,3.481,0,0,1,.638-1.118A3.13,3.13,0,0,1,28.4-12.5,3.454,3.454,0,0,1,29.883-12.8Zm2.271,2.979a4.014,4.014,0,0,0-.109-.445,2.24,2.24,0,0,0-.41-.773,2.186,2.186,0,0,0-.7-.551,2.314,2.314,0,0,0-1.055-.21,2.472,2.472,0,0,0-1.055.2,2.137,2.137,0,0,0-.719.537,2.485,2.485,0,0,0-.454.8q-.077.218-.136.441ZM46.109-7.2a9.411,9.411,0,0,1,1.029.062,8.479,8.479,0,0,1,.85.127l.392.087v4.158l-.418.07a9.01,9.01,0,0,1-1,.095c-.4.02-.825.03-1.264.03a4.267,4.267,0,0,1-2.152-.465A1.978,1.978,0,0,1,42.6-4.9a2.057,2.057,0,0,1,.32-1.162,2.146,2.146,0,0,1,.841-.73,3.555,3.555,0,0,1,1.115-.329A9.254,9.254,0,0,1,46.109-7.2Zm1.27,1.1q-.156-.021-.352-.043a8.414,8.414,0,0,0-.918-.056,8.252,8.252,0,0,0-1.1.069,2.563,2.563,0,0,0-.8.232,1.144,1.144,0,0,0-.457.391A1.085,1.085,0,0,0,43.6-4.9c0,.666.252.888.442,1a3.377,3.377,0,0,0,1.654.332c.422,0,.831-.01,1.214-.029q.259-.013.469-.032Z" transform="translate(-191.414 -232.606)" fill="#09c"/>
  </g>
</svg>
